<svg width="128" height="28" viewBox="0 0 128 28" fill="none" xmlns="http://www.w3.org/2000/svg">
<path d="M0.582386 27V0.818181H10.4006C12.4119 0.818181 14.0994 1.16761 15.4631 1.86648C16.8352 2.56534 17.8707 3.54545 18.5696 4.80682C19.277 6.05966 19.6307 7.52131 19.6307 9.19176C19.6307 10.8707 19.2727 12.3281 18.5568 13.5639C17.8494 14.7912 16.8054 15.7415 15.4247 16.4148C14.044 17.0795 12.348 17.4119 10.3366 17.4119H3.34375V13.4744H9.69744C10.8736 13.4744 11.8366 13.3125 12.5866 12.9886C13.3366 12.6562 13.8906 12.1747 14.2486 11.544C14.6151 10.9048 14.7983 10.1207 14.7983 9.19176C14.7983 8.26278 14.6151 7.47017 14.2486 6.81392C13.8821 6.14915 13.3239 5.64631 12.5739 5.3054C11.8239 4.95597 10.8565 4.78125 9.67188 4.78125H5.32528V27H0.582386ZM14.108 15.1364L20.5895 27H15.2969L8.9304 15.1364H14.108ZM32.2038 27.3835C30.2351 27.3835 28.5348 26.9744 27.103 26.1562C25.6797 25.3295 24.5845 24.1619 23.8175 22.6534C23.0504 21.1364 22.6669 19.3509 22.6669 17.2969C22.6669 15.277 23.0504 13.5043 23.8175 11.9787C24.593 10.4446 25.6754 9.25142 27.0646 8.39915C28.4538 7.53835 30.0859 7.10795 31.9609 7.10795C33.1712 7.10795 34.3132 7.30398 35.3871 7.69602C36.4695 8.07954 37.424 8.67614 38.2507 9.4858C39.0859 10.2955 39.7422 11.3267 40.2195 12.5795C40.6967 13.8239 40.9354 15.3068 40.9354 17.0284V18.4474H24.8402V15.3281H36.4993C36.4908 14.4418 36.299 13.6534 35.924 12.9631C35.549 12.2642 35.0249 11.7145 34.3516 11.3139C33.6868 10.9134 32.9112 10.7131 32.0249 10.7131C31.0788 10.7131 30.2479 10.9432 29.532 11.4034C28.8161 11.8551 28.2578 12.4517 27.8572 13.1932C27.4652 13.9261 27.2649 14.7315 27.2564 15.6094V18.3324C27.2564 19.4744 27.4652 20.4545 27.8828 21.2727C28.3004 22.0824 28.8842 22.7045 29.6342 23.1392C30.3842 23.5653 31.2621 23.7784 32.2678 23.7784C32.9411 23.7784 33.5504 23.6847 34.0959 23.4972C34.6413 23.3011 35.1143 23.0156 35.5149 22.6406C35.9155 22.2656 36.218 21.8011 36.4226 21.2472L40.7436 21.733C40.4709 22.875 39.951 23.8722 39.184 24.7244C38.4254 25.5682 37.4538 26.2244 36.2692 26.6932C35.0845 27.1534 33.7294 27.3835 32.2038 27.3835ZM61.8278 7.36364L54.8349 27H49.7212L42.7283 7.36364H47.663L52.1758 21.9503H52.3803L56.9059 7.36364H61.8278ZM72.9276 27.3835C71.0099 27.3835 69.348 26.9616 67.9418 26.1179C66.5355 25.2741 65.4446 24.0937 64.669 22.5767C63.902 21.0597 63.5185 19.2869 63.5185 17.2585C63.5185 15.2301 63.902 13.4531 64.669 11.9276C65.4446 10.402 66.5355 9.21733 67.9418 8.37358C69.348 7.52983 71.0099 7.10795 72.9276 7.10795C74.8452 7.10795 76.5071 7.52983 77.9134 8.37358C79.3196 9.21733 80.4063 10.402 81.1733 11.9276C81.9489 13.4531 82.3366 15.2301 82.3366 17.2585C82.3366 19.2869 81.9489 21.0597 81.1733 22.5767C80.4063 24.0937 79.3196 25.2741 77.9134 26.1179C76.5071 26.9616 74.8452 27.3835 72.9276 27.3835ZM72.9531 23.6761C73.9929 23.6761 74.8622 23.3906 75.5611 22.8196C76.2599 22.2401 76.7798 21.4645 77.1207 20.4929C77.4702 19.5213 77.6449 18.4389 77.6449 17.2457C77.6449 16.044 77.4702 14.9574 77.1207 13.9858C76.7798 13.0057 76.2599 12.2259 75.5611 11.6463C74.8622 11.0668 73.9929 10.777 72.9531 10.777C71.8878 10.777 71.0014 11.0668 70.294 11.6463C69.5952 12.2259 69.071 13.0057 68.7216 13.9858C68.3807 14.9574 68.2102 16.044 68.2102 17.2457C68.2102 18.4389 68.3807 19.5213 68.7216 20.4929C69.071 21.4645 69.5952 22.2401 70.294 22.8196C71.0014 23.3906 71.8878 23.6761 72.9531 23.6761ZM90.8924 0.818181V27H86.2646V0.818181H90.8924ZM108.167 18.7415V7.36364H112.795V27H108.308V23.5099H108.103C107.66 24.6094 106.931 25.5085 105.917 26.2074C104.911 26.9062 103.671 27.2557 102.197 27.2557C100.91 27.2557 99.772 26.9702 98.7834 26.3991C97.8033 25.8196 97.0362 24.9801 96.4822 23.8807C95.9283 22.7727 95.6513 21.4347 95.6513 19.8665V7.36364H100.279V19.1506C100.279 20.3949 100.62 21.3835 101.302 22.1165C101.984 22.8494 102.879 23.2159 103.987 23.2159C104.668 23.2159 105.329 23.0497 105.968 22.7173C106.607 22.3849 107.131 21.8906 107.54 21.2344C107.958 20.5696 108.167 19.7386 108.167 18.7415ZM127.359 7.36364V10.9432H116.071V7.36364H127.359ZM118.858 2.65909H123.485V21.0938C123.485 21.7159 123.579 22.1932 123.767 22.5256C123.963 22.8494 124.218 23.071 124.534 23.1903C124.849 23.3097 125.199 23.3693 125.582 23.3693C125.872 23.3693 126.136 23.348 126.375 23.3054C126.622 23.2628 126.809 23.2244 126.937 23.1903L127.717 26.8082C127.47 26.8935 127.116 26.9872 126.656 27.0895C126.204 27.1918 125.65 27.2514 124.994 27.2685C123.835 27.3026 122.791 27.1278 121.862 26.7443C120.933 26.3523 120.196 25.7472 119.65 24.929C119.113 24.1108 118.849 23.0881 118.858 21.8608V2.65909Z" fill="white"/>
</svg>
