<svg width="163" height="31" viewBox="0 0 163 31" fill="none" xmlns="http://www.w3.org/2000/svg">
<path d="M11.1591 30.4261C8.98106 30.4261 7.1108 29.9479 5.5483 28.9915C3.99527 28.035 2.79735 26.714 1.95455 25.0284C1.12121 23.3333 0.704545 21.3826 0.704545 19.1761C0.704545 16.9602 1.13068 15.0047 1.98295 13.3097C2.83523 11.6051 4.03788 10.2794 5.59091 9.33239C7.15341 8.37595 9 7.89773 11.1307 7.89773C12.9015 7.89773 14.4688 8.22443 15.8324 8.87784C17.2055 9.52178 18.2992 10.4356 19.1136 11.6193C19.928 12.7936 20.392 14.1667 20.5057 15.7386H15.5909C15.392 14.6875 14.9186 13.8116 14.1705 13.1108C13.4318 12.4006 12.4422 12.0455 11.2017 12.0455C10.1506 12.0455 9.22727 12.3295 8.43182 12.8977C7.63636 13.4564 7.0161 14.2614 6.57102 15.3125C6.13542 16.3636 5.91761 17.6231 5.91761 19.0909C5.91761 20.5777 6.13542 21.8561 6.57102 22.9261C7.00663 23.9867 7.61742 24.8059 8.40341 25.3835C9.19886 25.9517 10.1316 26.2358 11.2017 26.2358C11.9593 26.2358 12.6364 26.0937 13.233 25.8097C13.839 25.5161 14.3456 25.0947 14.7528 24.5455C15.16 23.9962 15.4394 23.3286 15.5909 22.5426H20.5057C20.3826 24.0862 19.928 25.4545 19.142 26.6477C18.3561 27.8314 17.286 28.7595 15.9318 29.4318C14.5777 30.0947 12.9867 30.4261 11.1591 30.4261ZM34.245 30.4261C32.1143 30.4261 30.2678 29.9574 28.7053 29.0199C27.1428 28.0824 25.9306 26.7708 25.0689 25.0852C24.2166 23.3996 23.7905 21.4299 23.7905 19.1761C23.7905 16.9223 24.2166 14.9479 25.0689 13.2528C25.9306 11.5578 27.1428 10.2415 28.7053 9.30398C30.2678 8.36648 32.1143 7.89773 34.245 7.89773C36.3757 7.89773 38.2223 8.36648 39.7848 9.30398C41.3473 10.2415 42.5547 11.5578 43.407 13.2528C44.2687 14.9479 44.6996 16.9223 44.6996 19.1761C44.6996 21.4299 44.2687 23.3996 43.407 25.0852C42.5547 26.7708 41.3473 28.0824 39.7848 29.0199C38.2223 29.9574 36.3757 30.4261 34.245 30.4261ZM34.2734 26.3068C35.4287 26.3068 36.3946 25.9896 37.1712 25.3551C37.9477 24.7112 38.5253 23.8494 38.9041 22.7699C39.2924 21.6903 39.4865 20.4877 39.4865 19.1619C39.4865 17.8267 39.2924 16.6193 38.9041 15.5398C38.5253 14.4508 37.9477 13.5843 37.1712 12.9403C36.3946 12.2964 35.4287 11.9744 34.2734 11.9744C33.0897 11.9744 32.1049 12.2964 31.3189 12.9403C30.5424 13.5843 29.96 14.4508 29.5717 15.5398C29.1929 16.6193 29.0036 17.8267 29.0036 19.1619C29.0036 20.4877 29.1929 21.6903 29.5717 22.7699C29.96 23.8494 30.5424 24.7112 31.3189 25.3551C32.1049 25.9896 33.0897 26.3068 34.2734 26.3068ZM54.206 17.2159V30H49.0639V8.18182H53.9787V11.8892H54.2344C54.7363 10.6676 55.5365 9.69697 56.6349 8.97727C57.7429 8.25758 59.1113 7.89773 60.7401 7.89773C62.2457 7.89773 63.5573 8.2197 64.6747 8.86364C65.8016 9.50758 66.6728 10.4403 67.2884 11.6619C67.9134 12.8835 68.2211 14.3655 68.2116 16.108V30H63.0696V16.9034C63.0696 15.4451 62.6908 14.304 61.9332 13.4801C61.1851 12.6562 60.1482 12.2443 58.8224 12.2443C57.9228 12.2443 57.1226 12.4432 56.4219 12.8409C55.7306 13.2292 55.1861 13.7926 54.7884 14.5312C54.4001 15.2699 54.206 16.1648 54.206 17.2159ZM73.6662 30V0.90909H78.8082V11.7898H79.0213C79.2865 11.2595 79.6605 10.696 80.1435 10.0994C80.6264 9.49337 81.2798 8.97727 82.1037 8.55114C82.9276 8.11553 83.9787 7.89773 85.2571 7.89773C86.9427 7.89773 88.4626 8.3286 89.8168 9.19034C91.1804 10.0426 92.2599 11.3068 93.0554 12.983C93.8603 14.6496 94.2628 16.6951 94.2628 19.1193C94.2628 21.5152 93.8698 23.5511 93.0838 25.2273C92.2978 26.9034 91.2277 28.1818 89.8736 29.0625C88.5194 29.9432 86.9853 30.3835 85.2713 30.3835C84.0213 30.3835 82.9844 30.1752 82.1605 29.7585C81.3366 29.3419 80.6738 28.84 80.1719 28.2528C79.6795 27.6562 79.2959 27.0928 79.0213 26.5625H78.723V30H73.6662ZM78.7088 19.0909C78.7088 20.5019 78.9077 21.7377 79.3054 22.7983C79.7126 23.8589 80.295 24.6875 81.0526 25.2841C81.8196 25.8712 82.7476 26.1648 83.8366 26.1648C84.973 26.1648 85.9247 25.8617 86.6918 25.2557C87.4588 24.6402 88.0365 23.8021 88.4247 22.7415C88.8224 21.6714 89.0213 20.4545 89.0213 19.0909C89.0213 17.7367 88.8272 16.5341 88.4389 15.483C88.0507 14.4318 87.473 13.608 86.706 13.0114C85.9389 12.4148 84.9825 12.1165 83.8366 12.1165C82.7382 12.1165 81.8054 12.4053 81.0384 12.983C80.2713 13.5606 79.6889 14.3703 79.2912 15.4119C78.9029 16.4536 78.7088 17.6799 78.7088 19.0909ZM104.913 30.4403C103.53 30.4403 102.285 30.1941 101.177 29.7017C100.078 29.1998 99.2071 28.4612 98.5632 27.4858C97.9287 26.5104 97.6115 25.3078 97.6115 23.8778C97.6115 22.6468 97.8388 21.6288 98.2933 20.8239C98.7479 20.0189 99.3681 19.375 100.154 18.892C100.94 18.4091 101.826 18.0445 102.81 17.7983C103.805 17.5426 104.832 17.358 105.893 17.2443C107.171 17.1117 108.208 16.9934 109.004 16.8892C109.799 16.7756 110.377 16.6051 110.737 16.3778C111.106 16.1411 111.29 15.7765 111.29 15.2841V15.1989C111.29 14.1288 110.973 13.3002 110.339 12.7131C109.704 12.1259 108.79 11.8324 107.597 11.8324C106.338 11.8324 105.339 12.107 104.6 12.6562C103.871 13.2055 103.379 13.8542 103.123 14.6023L98.3217 13.9205C98.7005 12.5947 99.3255 11.4867 100.197 10.5966C101.068 9.69697 102.133 9.02462 103.393 8.57955C104.652 8.125 106.044 7.89773 107.569 7.89773C108.62 7.89773 109.666 8.02083 110.708 8.26705C111.75 8.51326 112.701 8.92045 113.563 9.48864C114.425 10.0473 115.116 10.8097 115.637 11.7756C116.167 12.7415 116.433 13.9489 116.433 15.3977V30H111.489V27.0028H111.319C111.006 27.6089 110.566 28.1771 109.998 28.7074C109.439 29.2282 108.734 29.6496 107.881 29.9716C107.039 30.2841 106.049 30.4403 104.913 30.4403ZM106.248 26.6619C107.28 26.6619 108.175 26.4583 108.933 26.0511C109.69 25.6345 110.272 25.0852 110.68 24.4034C111.096 23.7216 111.305 22.9782 111.305 22.1733V19.6023C111.144 19.7348 110.869 19.858 110.481 19.9716C110.102 20.0852 109.676 20.1847 109.202 20.2699C108.729 20.3551 108.26 20.4309 107.796 20.4972C107.332 20.5634 106.93 20.6203 106.589 20.6676C105.822 20.7718 105.135 20.9422 104.529 21.179C103.923 21.4157 103.445 21.7472 103.094 22.1733C102.744 22.59 102.569 23.1297 102.569 23.7926C102.569 24.7396 102.915 25.4545 103.606 25.9375C104.297 26.4205 105.178 26.6619 106.248 26.6619ZM138.847 13.9489L134.16 14.4602C134.027 13.9867 133.795 13.5417 133.464 13.125C133.142 12.7083 132.706 12.3722 132.157 12.1165C131.608 11.8608 130.935 11.733 130.14 11.733C129.07 11.733 128.17 11.965 127.441 12.429C126.721 12.893 126.366 13.4943 126.376 14.233C126.366 14.8674 126.598 15.3835 127.072 15.7812C127.555 16.179 128.35 16.5057 129.458 16.7614L133.18 17.5568C135.244 18.0019 136.778 18.7074 137.782 19.6733C138.795 20.6392 139.307 21.9034 139.316 23.4659C139.307 24.839 138.904 26.0511 138.109 27.1023C137.323 28.1439 136.229 28.9583 134.827 29.5455C133.426 30.1326 131.816 30.4261 129.998 30.4261C127.327 30.4261 125.178 29.8674 123.549 28.75C121.92 27.6231 120.95 26.0559 120.637 24.0483L125.651 23.5653C125.879 24.5502 126.362 25.2936 127.1 25.7955C127.839 26.2973 128.8 26.5483 129.984 26.5483C131.205 26.5483 132.185 26.2973 132.924 25.7955C133.672 25.2936 134.046 24.6733 134.046 23.9347C134.046 23.3097 133.805 22.7936 133.322 22.3864C132.848 21.9792 132.11 21.6667 131.106 21.4489L127.384 20.6676C125.291 20.232 123.743 19.4981 122.739 18.4659C121.736 17.4242 121.238 16.108 121.248 14.517C121.238 13.1723 121.603 12.0076 122.342 11.0227C123.09 10.0284 124.127 9.26136 125.452 8.72159C126.788 8.17235 128.326 7.89773 130.069 7.89773C132.626 7.89773 134.638 8.44223 136.106 9.53125C137.583 10.6203 138.497 12.0928 138.847 13.9489ZM153.215 30.4261C151.028 30.4261 149.138 29.9716 147.548 29.0625C145.966 28.1439 144.749 26.8466 143.897 25.1705C143.045 23.4848 142.619 21.5009 142.619 19.2188C142.619 16.9744 143.045 15.0047 143.897 13.3097C144.759 11.6051 145.961 10.2794 147.505 9.33239C149.049 8.37595 150.862 7.89773 152.945 7.89773C154.29 7.89773 155.559 8.11553 156.752 8.55114C157.955 8.97727 159.015 9.64015 159.934 10.5398C160.862 11.4394 161.591 12.5852 162.121 13.9773C162.652 15.3598 162.917 17.0076 162.917 18.9205V20.4972H145.033V17.0312H157.988C157.978 16.0464 157.765 15.1705 157.349 14.4034C156.932 13.6269 156.35 13.0161 155.602 12.571C154.863 12.1259 154.001 11.9034 153.016 11.9034C151.965 11.9034 151.042 12.1591 150.246 12.6705C149.451 13.1723 148.831 13.8352 148.386 14.6591C147.95 15.4735 147.728 16.3684 147.718 17.3438V20.3693C147.718 21.6383 147.95 22.7273 148.414 23.6364C148.878 24.536 149.527 25.2273 150.36 25.7102C151.193 26.1837 152.169 26.4205 153.286 26.4205C154.034 26.4205 154.711 26.3163 155.317 26.108C155.924 25.8902 156.449 25.5729 156.894 25.1562C157.339 24.7396 157.675 24.2235 157.903 23.608L162.704 24.1477C162.401 25.4167 161.823 26.5246 160.971 27.4716C160.128 28.4091 159.049 29.1383 157.732 29.6591C156.416 30.1705 154.91 30.4261 153.215 30.4261Z" fill="white"/>
</svg>
